<?xml version="1.0" encoding="utf-8"?>
<!-- Generator: Adobe Illustrator 16.0.0, SVG Export Plug-In . SVG Version: 6.00 Build 0)  -->
<!DOCTYPE svg PUBLIC "-//W3C//DTD SVG 1.1//EN" "http://www.w3.org/Graphics/SVG/1.1/DTD/svg11.dtd">
<svg version="1.1" id="Layer_1" xmlns="http://www.w3.org/2000/svg" xmlns:xlink="http://www.w3.org/1999/xlink" x="0px" y="0px"
	 width="200px" height="auto" viewBox="0 0 200 100" style="enable-background:new 0 0 200 100;" xml:space="preserve">
<g>
	<path style="fill-rule:evenodd;clip-rule:evenodd;" d="M170.877,62.812c-6.585,0-13.173,0.001-19.76,0
		c-1.465,0-1.944-0.486-1.944-1.963c0-0.937,0.012-1.875-0.004-2.812c-0.016-1.003-0.651-1.598-1.677-1.594
		c-1.021,0.004-1.645,0.606-1.656,1.614c-0.008,0.959,0,1.919-0.002,2.877c-0.002,1.361-0.522,1.878-1.903,1.878
		c-12.15,0.001-24.301,0-36.451,0.001c-1.553,0-2.01,0.459-2.01,2.023c0,0.874,0.011,1.748-0.005,2.621
		c-0.018,1.133-0.559,1.673-1.702,1.691c-1.003,0.018-2.006-0.004-3.007,0.009c-1.067,0.012-1.608,0.56-1.616,1.623
		c-0.007,1.002,0.005,2.004-0.004,3.005c-0.011,1.107-0.597,1.684-1.71,1.685c-6.203,0.002-12.407,0.002-18.609,0
		c-1.167,0-1.719-0.545-1.725-1.725c-0.01-1.961-0.01-3.924,0-5.885c0.007-1.204,0.558-1.727,1.787-1.727
		c5.181-0.001,10.36,0.001,15.54-0.002c1.163-0.001,1.727-0.592,1.701-1.746c-0.022-0.995-0.599-1.569-1.614-1.571
		c-3.049-0.006-6.097-0.002-9.145-0.003c-1.429-0.001-1.931-0.498-1.932-1.912c0-0.917,0.005-1.833-0.001-2.75
		c-0.008-1.118-0.569-1.683-1.697-1.696c-0.98-0.012-1.961,0.004-2.941-0.004c-1.142-0.011-1.696-0.544-1.697-1.687
		c-0.008-6.224-0.007-12.449-0.001-18.673c0.001-1.177,0.551-1.707,1.732-1.715c0.98-0.007,1.962,0.01,2.942-0.005
		c1.087-0.016,1.653-0.589,1.662-1.666c0.008-1.023-0.007-2.047,0.005-3.069c0.012-1.027,0.607-1.614,1.644-1.616
		c4.135-0.004,8.271-0.004,12.406,0c1.03,0.001,1.635,0.587,1.652,1.613c0.017,1.044-0.002,2.089,0.007,3.134
		c0.009,0.999,0.579,1.583,1.587,1.604c0.938,0.02,1.875,0.003,2.814,0.005c1.444,0.002,1.926,0.472,1.926,1.906
		c0.004,5.117,0.004,10.232,0,15.348c0,0.55,0.018,1.133,0.521,1.431c0.396,0.235,0.901,0.394,1.358,0.395
		c10.084,0.022,20.166,0.017,30.25,0.017c1.064,0,2.131,0.001,3.195,0c1.585,0,2.039-0.458,2.039-2.067
		c0.002-5.03,0-10.062,0.002-15.092c0-0.234-0.009-0.471,0.018-0.702c0.091-0.752,0.651-1.31,1.407-1.315
		c2.152-0.02,4.307-0.018,6.459-0.002c0.765,0.006,1.32,0.529,1.429,1.29c0.04,0.273,0.038,0.553,0.038,0.829
		c0.002,5.052,0,10.104,0.002,15.156c0,1.418,0.494,1.904,1.933,1.904c11.19,0,22.382,0,33.574,0c1.457,0,1.952-0.491,1.954-1.959
		c0.002-5.095,0-10.189,0-15.284c0-1.468,0.48-1.943,1.957-1.943c1.896,0,3.794-0.003,5.692,0.001
		c1.092,0.002,1.693,0.548,1.696,1.629c0.011,6.289,0.011,12.578,0,18.865c0,1.095-0.581,1.641-1.672,1.651
		c-1.002,0.01-2.005-0.005-3.005,0.005c-1.074,0.01-1.659,0.598-1.666,1.664c-0.004,0.958,0.003,1.918,0,2.878
		c-0.004,1.289-0.539,1.833-1.819,1.833C184.181,62.812,177.529,62.812,170.877,62.812z M96.12,45.442
		c0-2.131,0.006-4.262-0.003-6.393c-0.005-1.133-0.569-1.688-1.69-1.691c-2.089-0.004-4.176-0.003-6.265,0
		c-1.171,0.001-1.718,0.544-1.72,1.726c-0.006,4.219-0.006,8.438,0,12.659c0.001,1.177,0.551,1.722,1.723,1.726
		c2.067,0.006,4.134,0.005,6.201,0c1.205-0.003,1.749-0.546,1.752-1.762C96.125,49.62,96.12,47.531,96.12,45.442z"/>
	<path style="fill-rule:evenodd;clip-rule:evenodd;" d="M26.376,50.2c0-4.669,0-9.337,0-14.005c0-1.417,0.5-1.911,1.93-1.911
		c1.897,0,3.795-0.002,5.691,0c1.219,0.001,1.759,0.53,1.76,1.75c0.004,5.095,0.001,10.189,0.002,15.284
		c0,0.214-0.007,0.428,0.009,0.64c0.076,1.008,0.702,1.544,1.757,1.511c0.938-0.03,1.525-0.625,1.526-1.599
		c0.007-5.18,0.003-10.359,0.005-15.54c0-0.255-0.009-0.515,0.031-0.765c0.123-0.753,0.691-1.271,1.452-1.276
		c2.153-0.015,4.306-0.019,6.459,0.002c0.874,0.008,1.444,0.652,1.459,1.607c0.018,1.172,0.004,2.344,0.004,3.517
		c0,4.114-0.003,8.229,0.004,12.343c0.001,1.136,0.585,1.715,1.677,1.71c1.05-0.005,1.66-0.604,1.666-1.673
		c0.01-1.727,0.002-3.454,0.002-5.18c0-3.518-0.001-7.035,0.001-10.552c0.001-1.252,0.538-1.78,1.792-1.781
		c1.939-0.001,3.879-0.002,5.819,0c1.151,0.002,1.729,0.574,1.729,1.726c0.002,6.225,0.002,12.449,0,18.674
		c0,1.193-0.558,1.74-1.77,1.747c-0.98,0.006-1.962-0.007-2.942,0.004c-1.028,0.012-1.628,0.601-1.647,1.63
		c-0.02,1.022,0,2.046-0.006,3.068c-0.007,1.1-0.559,1.67-1.639,1.676c-2.025,0.007-4.05,0.007-6.075,0
		c-1.071-0.006-1.643-0.589-1.65-1.669c-0.007-1.002,0.003-2.004-0.003-3.006c-0.008-1.068-0.621-1.69-1.651-1.692
		c-1.028-0.002-1.648,0.622-1.658,1.687c-0.009,0.979,0,1.96-0.002,2.941c-0.004,1.164-0.559,1.732-1.708,1.74
		c-1.002,0.006-2.003-0.005-3.005,0.003c-1.012,0.008-1.598,0.559-1.627,1.571c-0.028,1-0.003,2.003-0.01,3.005
		c-0.007,1.21-0.539,1.747-1.761,1.761c-1.001,0.012-2.004-0.007-3.005,0.007c-1.028,0.014-1.579,0.56-1.595,1.583
		c-0.016,1.002,0.005,2.004-0.007,3.006c-0.015,1.174-0.571,1.724-1.734,1.724c-6.203,0.001-12.406,0.002-18.61,0
		c-1.116-0.001-1.701-0.577-1.709-1.683c-0.008-1.002,0.006-2.004-0.004-3.006c-0.012-1.085-0.573-1.641-1.667-1.654
		c-1.001-0.012-2.004,0.01-3.006-0.006c-1.113-0.018-1.649-0.557-1.649-1.662c-0.003-8.377-0.003-16.755,0-25.134
		c0-1.103,0.554-1.649,1.654-1.654c1.875-0.006,3.752-0.001,5.627-0.001c1.602,0,2.064,0.457,2.064,2.042c0,7.078,0,14.155,0,21.232
		c0,0.171-0.001,0.341,0,0.512c0.014,1.122,0.565,1.676,1.705,1.677c3.858,0.004,7.716,0.001,11.575,0.001
		c0.362,0,0.724,0.004,1.086-0.001c1.068-0.017,1.651-0.599,1.652-1.671C26.378,59.708,26.376,54.954,26.376,50.2z"/>
	<path style="fill-rule:evenodd;clip-rule:evenodd;" d="M117.415,70.801c0-1-0.009-2.002,0.002-3.003
		c0.012-1.101,0.565-1.661,1.647-1.663c2.022-0.005,4.049-0.005,6.071,0c1.068,0.002,1.647,0.582,1.651,1.663
		c0.007,2.003,0.007,4.005,0,6.008c-0.004,1.081-0.583,1.661-1.651,1.663c-2.022,0.005-4.049,0.005-6.071,0
		c-1.082-0.002-1.636-0.562-1.647-1.663C117.406,72.804,117.415,71.803,117.415,70.801z"/>
	<path style="fill-rule:evenodd;clip-rule:evenodd;" d="M134.774,66.133c1.022,0,2.046-0.004,3.067,0.002
		c1.024,0.005,1.622,0.548,1.63,1.548c0.02,2.088,0.02,4.176-0.002,6.264c-0.009,0.965-0.607,1.518-1.591,1.521
		c-2.066,0.007-4.131,0.008-6.197,0c-0.958-0.005-1.566-0.603-1.573-1.548c-0.009-2.087-0.012-4.174,0.002-6.263
		c0.005-0.909,0.619-1.509,1.533-1.521C132.686,66.122,133.729,66.134,134.774,66.133z"/>
	<path style="fill-rule:evenodd;clip-rule:evenodd;" d="M170.617,70.802c0-1.022-0.014-2.046,0.002-3.068
		c0.018-1.068,0.563-1.597,1.636-1.599c2.001-0.004,4.004-0.004,6.008,0c1.11,0.002,1.691,0.576,1.695,1.694
		c0.01,1.981,0.01,3.963,0,5.944c-0.004,1.118-0.585,1.693-1.695,1.696c-2.004,0.003-4.005,0.003-6.008,0
		c-1.072-0.003-1.618-0.531-1.636-1.6C170.604,72.848,170.617,71.824,170.617,70.802z"/>
	<path style="fill-rule:evenodd;clip-rule:evenodd;fill:#FFFFFF;" d="M96.12,45.442c0,2.088,0.005,4.177-0.002,6.265
		c-0.004,1.216-0.547,1.759-1.752,1.762c-2.067,0.005-4.134,0.006-6.201,0c-1.171-0.004-1.721-0.549-1.723-1.726
		c-0.006-4.22-0.006-8.439,0-12.659c0.001-1.182,0.549-1.724,1.72-1.726c2.089-0.003,4.176-0.004,6.265,0
		c1.121,0.002,1.685,0.558,1.69,1.691C96.126,41.181,96.12,43.312,96.12,45.442z"/>
</g>
</svg>
